<?xml version="1.0" encoding="UTF-8"?>
<svg id="Layer_5" data-name="Layer 5" xmlns="http://www.w3.org/2000/svg" viewBox="0 0 1080 1080">
  <defs>
    <style>
      .cls-1 {
        fill: #fff;
      }

      .cls-2 {
        fill: red;
      }

      .cls-3 {
        fill: #fe1700;
      }
    </style>
  </defs>
  <path class="cls-1" d="M898.24,496.3c51.38-120.85,71-254.82,57.48-385.55-79.43,65.74-145.72,147.01-193.92,238.06-1.39,2.63-2.77,5.26-4.13,7.9,57.15,34.57,105.68,82.74,140.56,139.58Z"/>
  <path class="cls-1" d="M700.37,870.32h-.01c-36.65,24.4-70.2,53.34-99.74,85.82-34.75-25.42-86.48-25.42-121.23,0-29.55-32.48-63.09-61.41-99.74-85.82h-.01c-98.21-66.1-219.64-97.81-337.99-88.9,17.04,18.95,39.6,36.15,62.33,49.19,29.26,15.81,61.53,25.01,89.04,44.26h.01c32.68,19.04,56.73,47.84,84.57,72.62,72.77,63.36,165.62,109.94,262.4,109.94,96.79,0,189.63-46.58,262.41-109.94,27.84-24.79,51.88-53.58,84.57-72.63h.01c39.83-26.72,88.93-36.8,125.34-69.01,9.83-7.92,18.56-16.14,26.04-24.44-118.36-8.91-239.78,22.8-337.99,88.9ZM594.62,996.61h0c-9.84,14.86-33.14,31.38-54.62,31.37-21.5,0-44.76-16.5-54.62-31.36h0c-35.15-55.14,144.38-55.16,109.25-.01Z"/>
  <g>
    <path class="cls-2" d="M1062.08,748.39c-56.1-33.55-81.44-83.64-102.98-142.55t0-.03c-9.18-20.49-19.87-40.14-31.95-58.97C1012.96,380.17,1034.8,181.7,988.71,0c-15.13,10.99-30.07,22.25-44.78,33.77.09.39.16.78.25,1.18h-1.75c-70.96,55.72-137,117.62-197.1,184.83h-.01c-27.59,30.82-53.89,62.74-78.91,95.67-80.88-25.71-171.93-25.71-252.81,0-25.02-32.93-51.33-64.85-78.91-95.67h-.01c-60.09-67.21-126.13-129.11-197.1-184.83h-1.75c.09-.39.16-.78.25-1.18C121.36,22.25,106.42,10.99,91.29,0c-46.09,181.7-24.25,380.16,61.56,546.85-12.09,18.82-22.77,38.48-31.95,58.97t0,.03c-23.78,66.57-54.55,120.2-120.9,152.47,21.55,24.7,46.31,46.55,73.63,64.73-19.33,6.75-38.21,14.54-56.58,23.45,72.45,5.51,142.35,33.93,198.03,80.2,13.04,10.77,25.25,22.46,36.62,34.98,20.14,17.32,41.61,33.02,64.3,46.92h0c67.44,41.42,165.2,71.4,223.99,71.4,58.79,0,156.56-29.98,223.99-71.39h0c22.69-13.91,44.17-29.61,64.3-46.93,11.37-12.51,23.58-24.21,36.62-34.98,55.68-46.27,125.58-74.68,198.03-80.2-18.37-8.91-37.24-16.71-56.58-23.45,27.33-18.19,52.09-40.03,73.63-64.73-6.14-3.02-12.13-6.34-17.92-9.92ZM761.81,348.81c48.2-91.05,114.48-172.32,193.92-238.06,13.52,130.73-6.11,264.7-57.48,385.55-34.88-56.84-83.41-105.01-140.56-139.58,1.36-2.64,2.74-5.27,4.13-7.9ZM660.34,727.48c28.34,60.64,119.98,33.24,115.08-31.26-.67-9.09-3.48-18.09-8.57-26.23,20.24-5.16,41.59-7.76,62.64-7.69-5.05,36.18-24.52,69.52-54.67,90.88-.01,0-.01.01-.03.01-41.94,30.45-99.94,32.12-144.95,7.64,9.14-12.02,19.36-23.19,30.5-33.36ZM330.82,750.41c29.5,21.42,74.33,10.62,88.84-22.93,11.14,10.17,21.36,21.35,30.5,33.36-45.01,24.48-103.01,22.81-144.95-7.64-.01,0-.01-.01-.03-.01-30.14-21.35-49.61-54.69-54.67-90.88,21.05-.08,42.4,2.53,62.64,7.69-5.09,8.14-7.91,17.14-8.57,26.23-1.52,20.43,7.8,41.37,26.24,54.19ZM151.42,411.16c-28.37-96.78-37.5-199.85-27.14-300.41,81.72,67.63,149.54,151.72,198.04,245.96-57.15,34.57-105.68,82.74-140.56,139.58-11.76-27.73-21.9-56.22-30.34-85.14ZM1012.33,805.86c-36.41,32.21-85.51,42.29-125.34,69.01h-.01c-32.69,19.05-56.72,47.83-84.57,72.63-72.77,63.35-165.62,109.94-262.41,109.94-96.79,0-189.63-46.58-262.4-109.94-27.84-24.79-51.89-53.58-84.57-72.62h-.01c-27.51-19.25-59.78-28.45-89.04-44.26-22.73-13.04-45.3-30.24-62.34-49.19,118.36-8.91,239.78,22.8,337.99,88.9h.01c36.65,24.4,70.2,53.34,99.74,85.82,34.75-25.42,86.48-25.42,121.23,0,29.55-32.48,63.09-61.42,99.74-85.82h.01c98.22-66.1,219.63-97.8,337.99-88.9-7.48,8.3-16.21,16.52-26.04,24.44Z"/>
    <path class="cls-3" d="M594.62,996.61h0c-9.84,14.86-33.14,31.37-54.62,31.37-21.5,0-44.76-16.5-54.62-31.36h0c-35.15-55.14,144.38-55.16,109.25-.01Z"/>
  </g>
  <path class="cls-1" d="M304.58,696.23c.67-9.09,3.48-18.09,8.57-26.23-20.24-5.16-41.6-7.76-62.64-7.69,5.05,36.18,24.52,69.53,54.67,90.88.01,0,.01.01.03.01,41.94,30.45,99.94,32.12,144.95,7.64-9.14-12.02-19.36-23.19-30.5-33.36-14.5,33.55-59.33,44.35-88.84,22.93-18.44-12.82-27.76-33.76-26.24-54.19Z"/>
  <path class="cls-1" d="M774.79,753.2s.01-.01.03-.01c30.15-21.35,49.61-54.69,54.67-90.88-21.05-.08-42.4,2.53-62.64,7.69,5.09,8.14,7.91,17.14,8.57,26.23,4.9,64.5-86.74,91.89-115.08,31.26-11.14,10.17-21.36,21.35-30.5,33.36,45.01,24.48,103.01,22.81,144.95-7.64Z"/>
  <path class="cls-1" d="M322.32,356.72c-48.5-94.24-116.32-178.33-198.04-245.96-10.35,100.56-1.22,203.63,27.14,300.41,8.44,28.92,18.58,57.4,30.34,85.14,34.88-56.84,83.41-105.01,140.56-139.58Z"/>
</svg>